<svg version="1.0" xmlns="http://www.w3.org/2000/svg"
 width="2549.000000pt" height="2495.000000pt" viewBox="0 0 2549.000000 2495.000000"
 preserveAspectRatio="xMidYMid meet">

<g transform="translate(0.000000,2495.000000) scale(0.100000,-0.100000)"
fill="#222222" stroke="none">
<path d="M1560 24923 c-321 -23 -673 -164 -931 -371 -254 -205 -427 -476 -565
-887 l-54 -160 0 -252 0 -252 43 -123 c35 -102 67 -163 180 -353 168 -283 232
-368 383 -515 219 -213 741 -683 1549 -1395 281 -247 1055 -931 1720 -1520
1207 -1068 1536 -1358 2840 -2510 380 -335 899 -794 1155 -1020 256 -226 830
-732 1275 -1125 446 -393 1175 -1036 1620 -1430 895 -791 892 -789 1020 -873
389 -256 844 -349 1274 -261 285 59 576 208 831 426 112 96 931 819 1810 1598
1211 1074 2101 1860 3470 3065 1620 1426 2520 2221 4385 3875 506 449 999 883
1095 966 240 206 327 301 472 518 135 202 240 405 303 586 l40 115 0 200 c-1
169 -4 216 -23 305 -121 557 -469 1008 -962 1244 -208 99 -382 143 -606 153
-333 14 -656 -76 -967 -268 -181 -112 -183 -115 -2477 -2154 -2157 -1918
-3304 -2935 -5000 -4430 -492 -434 -1296 -1143 -1785 -1575 -490 -432 -895
-789 -900 -792 -21 -13 45 -70 -2105 1832 -245 217 -1106 982 -1915 1700
-1464 1300 -2033 1804 -3755 3325 -1320 1166 -1379 1218 -1675 1475 -468 408
-623 539 -701 596 -291 208 -675 314 -1044 287z"/>
<path d="M1460 13076 c-532 -77 -983 -390 -1233 -856 -57 -106 -127 -277 -178
-434 l-39 -121 0 -250 0 -250 43 -125 c37 -106 64 -160 181 -355 226 -375 232
-382 746 -850 325 -296 631 -569 1330 -1185 283 -250 612 -540 730 -645 118
-105 508 -449 865 -765 358 -316 767 -678 910 -804 143 -127 334 -296 425
-376 91 -80 401 -355 690 -610 289 -256 1058 -935 1710 -1510 1067 -942 2330
-2057 3495 -3085 526 -464 536 -473 660 -555 183 -120 386 -207 600 -256 160
-36 413 -45 584 -20 279 41 555 160 796 341 112 85 591 506 2750 2420 737 653
1130 1000 2635 2325 1705 1501 2792 2462 4345 3840 902 800 1006 892 1217
1073 176 152 257 240 372 407 167 242 264 424 342 640 l38 105 0 200 c1 224
-10 299 -69 492 -44 140 -92 254 -157 366 -206 360 -570 661 -953 785 -177 58
-241 67 -475 67 -189 0 -228 -3 -320 -23 -222 -50 -421 -135 -610 -259 -186
-123 -118 -64 -2695 -2353 -2560 -2275 -3034 -2694 -5840 -5169 -583 -515
-1183 -1044 -1334 -1177 l-274 -242 -71 56 c-92 73 -1313 1151 -2986 2637
-2430 2158 -3143 2790 -4050 3590 -305 269 -843 744 -1195 1055 -972 859
-1607 1414 -1770 1545 -189 153 -430 265 -681 316 -131 26 -401 34 -534 15z"/>
</g>
</svg>
