<?xml version="1.0" standalone="no"?>
<!DOCTYPE svg PUBLIC "-//W3C//DTD SVG 20010904//EN"
 "http://www.w3.org/TR/2001/REC-SVG-20010904/DTD/svg10.dtd">
<svg version="1.0" xmlns="http://www.w3.org/2000/svg"
 width="900.000000pt" height="900.000000pt" viewBox="0 0 900.000000 900.000000"
 preserveAspectRatio="xMidYMid meet">

<g transform="translate(0.000000,900.000000) scale(0.100000,-0.100000)"
fill="#838383" stroke="none">
<path d="M4275 7633 c-184 -17 -481 -87 -642 -151 -95 -39 -228 -109 -318
-170 -324 -217 -537 -512 -679 -942 -57 -172 -106 -387 -106 -464 0 -54 -25
-45 230 -81 102 -14 252 -36 334 -47 175 -26 162 -32 195 95 85 327 166 511
307 693 191 246 462 389 801 423 566 57 1113 -289 1281 -809 34 -105 45 -207
39 -347 -6 -137 -22 -205 -72 -303 -91 -179 -224 -325 -635 -699 -284 -258
-513 -487 -587 -588 -250 -339 -353 -694 -353 -1220 l0 -163 375 0 375 0 0 63
c1 199 48 534 96 682 66 199 206 372 584 718 676 618 887 930 960 1417 12 81
15 324 5 386 -69 414 -199 683 -465 958 -154 159 -343 291 -540 376 -182 79
-452 145 -689 169 -95 10 -403 12 -496 4z"/>
<path d="M3970 1785 l0 -425 425 0 425 0 0 425 0 425 -425 0 -425 0 0 -425z"/>
</g>
</svg>
